{"title":"Maroon 5 - Maps [Explicit] 720p [Sbyky]","uid":11182736,"size":35201799,"categoryP":"video","categoryS":"music_videos","magnet":"?xt=urn:btih:392c2b076583a3791bc5ac499f2a6aa8b717d353&amp;dn=Maroon+5+-+Maps+%5BExplicit%5D+720p+%5BSbyky%5D&amp;tr=udp%3A%2F%2Ftracker.openbittorrent.com%3A80&amp;tr=udp%3A%2F%2Fopen.demonii.com%3A1337&amp;tr=udp%3A%2F%2Ftracker.coppersurfer.tk%3A6969&amp;tr=udp%3A%2F%2Fexodus.desync.com%3A6969","seeders":3,"leechers":1,"uploader":"Sbyky","files":1,"time":1412884404,"description":"General\nComplete name                            : Maroon 5 - Maps [Explicit] 720p [Sbyky].MP4\nFormat                                   : MPEG-4\nFormat profile                           : Base Media\nCodec ID                                 : isom\nFile size                                : 33.6 MiB\nDuration                                 : 3mn 28s\nOverall bit rate mode                    : Variable\nOverall bit rate                         : 1 353 Kbps\nEncoded date                             : UTC 2014-07-03 23:06:53\nTagged date                              : UTC 2014-07-03 23:06:53\n\nVideo\nID                                       : 1\nFormat                                   : AVC\nFormat/Info                              : Advanced Video Codec\nFormat profile                           : &lt;a class=&quot;__cf_email__&quot; href=&quot;/cdn-cgi/l/email-protection&quot; data-cfemail=&quot;c68ba7afa8868af5e8f7&quot;&gt;[email&amp;#160;protected]&lt;/a&gt;&lt;script cf-hash='f9e31' type=&quot;text/javascript&quot;&gt;\n/* &lt;![CDATA[ */!function(){try{var t=&quot;currentScript&quot;in document?document.currentScript:function(){for(var t=document.getElementsByTagName(&quot;script&quot;),e=t.length;e--;)if(t[e].getAttribute(&quot;cf-hash&quot;))return t[e]}();if(t&amp;&amp;t.previousSibling){var e,r,n,i,c=t.previousSibling,a=c.getAttribute(&quot;data-cfemail&quot;);if(a){for(e=&quot;&quot;,r=parseInt(a.substr(0,2),16),n=2;a.length-n;n+=2)i=parseInt(a.substr(n,2),16)^r,e+=String.fromCharCode(i);e=document.createTextNode(e),c.parentNode.replaceChild(e,c)}}}catch(u){}}();/* ]]&gt; */&lt;/script&gt;\nFormat settings, CABAC                   : Yes\nFormat settings, ReFrames                : 3 frames\nCodec ID                                 : avc1\nCodec ID/Info                            : Advanced Video Coding\nDuration                                 : 3mn 28s\nBit rate                                 : 1 223 Kbps\nWidth                                    : 1 280 pixels\nHeight                                   : 720 pixels\nDisplay aspect ratio                     : 16:9\nFrame rate mode                          : Variable\nFrame rate                               : 23.976 fps\nMinimum frame rate                       : 23.974 fps\nMaximum frame rate                       : 1 875.000 fps\nColor space                              : YUV\nChroma subsampling                       : 4:2:0\nBit depth                                : 8 bits\nScan type                                : Progressive\nBits/(Pixel*Frame)                       : 0.055\nStream size                              : 30.3 MiB (90%)\nEncoded date                             : UTC 2014-07-03 23:06:53\nTagged date                              : UTC 2014-07-03 23:06:53\n\nAudio\nID                                       : 2\nFormat                                   : AAC\nFormat/Info                              : Advanced Audio Codec\nFormat profile                           : LC\nCodec ID                                 : 40\nDuration                                 : 3mn 28s\nBit rate mode                            : Variable\nBit rate                                 : 126 Kbps\nChannel(s)                               : 2 channels\nChannel positions                        : Front: L R\nSampling rate                            : 44.1 KHz\nCompression mode                         : Lossy\nStream size                              : 3.12 MiB (9%)\nEncoded date                             : UTC 2014-07-03 23:06:08\nTagged date                              : UTC 2014-07-03 23:06:08\n\nShared By Sbyky\n","torrent":{"xt":"urn:btih:392c2b076583a3791bc5ac499f2a6aa8b717d353","amp;dn":"Maroon+5+-+Maps+%5BExplicit%5D+720p+%5BSbyky%5D","amp;tr":["udp%3A%2F%2Ftracker.openbittorrent.com%3A80","udp%3A%2F%2Fopen.demonii.com%3A1337","udp%3A%2F%2Ftracker.coppersurfer.tk%3A6969","udp%3A%2F%2Fexodus.desync.com%3A6969"],"infoHash":"392c2b076583a3791bc5ac499f2a6aa8b717d353","infoHashBuffer":{"type":"Buffer","data":[57,44,43,7,101,131,163,121,27,197,172,73,159,42,106,168,183,23,211,83]},"announce":[],"urlList":[]}}